<svg id="cross3" enable-background="new 0 0 300 300" height="512" viewBox="0 0 300 300" width="512" xmlns="http://www.w3.org/2000/svg" xmlns:xlink="http://www.w3.org/1999/xlink"><linearGradient id="SVGID_1_" gradientUnits="userSpaceOnUse" x1="72.931" x2="194.589" y1="196.589" y2="74.931"><stop offset="0" stop-color="#107eff"/><stop offset="1" stop-color="#8f16ff"/></linearGradient><g><path d="m82 72c8.824 0 16-7.176 16-16s-7.176-16-16-16-16 7.176-16 16 7.176 16 16 16zm0-24c4.41 0 8 3.59 8 8s-3.59 8-8 8-8-3.59-8-8 3.59-8 8-8zm-6 49.47c2.501 0 4.53 2.028 4.53 4.53 0 2.501-2.028 4.529-4.53 4.529s-4.53-2.028-4.53-4.529c0-2.502 2.029-4.53 4.53-4.53zm-32.53-23.47c0-2.502 2.028-4.53 4.53-4.53s4.53 2.028 4.53 4.53c0 2.501-2.028 4.529-4.53 4.529s-4.53-2.028-4.53-4.529zm210.53 62h-4v-4c0-2.211-1.789-4-4-4h-52.117l-19.891-19.891c0-.015.009-.027.009-.042v-52.067c0-2.211-1.789-4-4-4h-4v-4c0-2.211-1.789-4-4-4h-24c-2.211 0-4 1.789-4 4v4h-4c-2.211 0-4 1.789-4 4v51.711c0 .12.058.221.068.338l-19.952 19.951h-52.117c-2.211 0-4 1.789-4 4v4h-4c-2.211 0-4 1.789-4 4v24c0 2.211 1.789 4 4 4h4v4c0 2.211 1.789 4 4 4h52.117l19.883 19.883v52.117c0 2.211 1.789 4 4 4h4v4c0 2.211 1.789 4 4 4h24c2.211 0 4-1.789 4-4v-4h4c2.211 0 4-1.789 4-4v-52.117l19.883-19.883h52.117c2.211 0 4-1.789 4-4v-4h4c2.211 0 4-1.789 4-4v-24c0-2.211-1.789-4-4-4zm-104 72.57-56.57-56.57 56.57-56.57 56.57 56.57zm-16-148.57h4c2.211 0 4-1.789 4-4v-4h16v4c0 2.211 1.789 4 4 4h4v40.117l-13.172-13.172c-1.562-1.562-4.094-1.562-5.656 0l-13.172 13.172zm32 184h-4c-2.211 0-4 1.789-4 4v4h-16v-4c0-2.211-1.789-4-4-4h-4v-40.117l13.172 13.172c.781.781 1.805 1.172 2.828 1.172s2.047-.391 2.828-1.172l13.172-13.172z" fill="url(#SVGID_1_)"/></g></svg>